<?xml version="1.0" encoding="UTF-8" standalone="no" ?>
<!DOCTYPE svg PUBLIC "-//W3C//DTD SVG 1.1//EN" "http://www.w3.org/Graphics/SVG/1.1/DTD/svg11.dtd">
<svg xmlns="http://www.w3.org/2000/svg" xmlns:xlink="http://www.w3.org/1999/xlink" version="1.1" width="297.6413" height="314.2171" xml:space="preserve">
<desc>Created with Fabric.js 1.6.0-rc.1</desc>
<defs></defs>
<g style="stroke: none; stroke-width: 1; stroke-dasharray: none; stroke-linecap: butt; stroke-linejoin: miter; stroke-miterlimit: 10; fill: none; fill-rule: nonzero; opacity: 1;" transform="translate(10 10) scale(0.67 0.67)" >
  <path d="M 114.958 148.487 c -9.566 -6.515 -19.666 -12.112 -29.736 -16.313 l -6.461 33.689 l 26.434 33.037 L 114.958 148.487 z" style="stroke: none; stroke-width: 1; stroke-dasharray: none; stroke-linecap: butt; stroke-linejoin: miter; stroke-miterlimit: 10; fill: #669933; fill-rule: nonzero; opacity: 1;" transform=" matrix(1 0 0 1 0 0) " stroke-linecap="round" />
  <path d="M 75.718 128.631 c -10.619 -3.476 -20.995 -5.214 -30.432 -4.604 l 25.261 31.57 L 75.718 128.631 z" style="stroke: none; stroke-width: 1; stroke-dasharray: none; stroke-linecap: butt; stroke-linejoin: miter; stroke-miterlimit: 10; fill: #669933; fill-rule: nonzero; opacity: 1;" transform=" matrix(1 0 0 1 0 0) " stroke-linecap="round" />
  <path d="M 161.106 252.117 c 9.958 -16.995 9.289 -39.809 -1.402 -59.091 l -9.318 49.578 C 153.842 245.51 157.456 248.692 161.106 252.117 z" style="stroke: none; stroke-width: 1; stroke-dasharray: none; stroke-linecap: butt; stroke-linejoin: miter; stroke-miterlimit: 10; fill: #669933; fill-rule: nonzero; opacity: 1;" transform=" matrix(1 0 0 1 0 0) " stroke-linecap="round" />
  <path d="M 37.495 130.294 c -2.664 9.068 -3.245 19.566 -2.187 30.683 l 27.433 0.87 L 37.495 130.294 z" style="stroke: none; stroke-width: 1; stroke-dasharray: none; stroke-linecap: butt; stroke-linejoin: miter; stroke-miterlimit: 10; fill: #CCFF66; fill-rule: nonzero; opacity: 1;" transform=" matrix(1 0 0 1 0 0) " stroke-linecap="round" />
  <path d="M 390.254 10.616 c -15.489 -1.799 -32.888 0.969 -50.683 7.022 l 8.712 45.432 L 390.254 10.616 z" style="stroke: none; stroke-width: 1; stroke-dasharray: none; stroke-linecap: butt; stroke-linejoin: miter; stroke-miterlimit: 10; fill: #CCFF66; fill-rule: nonzero; opacity: 1;" transform=" matrix(1 0 0 1 0 0) " stroke-linecap="round" />
  <path d="M 340.071 73.334 l -10.004 -52.171 c -15.915 6.391 -31.932 15.207 -46.985 25.562 l 15.132 78.921 L 340.071 73.334 z" style="stroke: none; stroke-width: 1; stroke-dasharray: none; stroke-linecap: butt; stroke-linejoin: miter; stroke-miterlimit: 10; fill: #CCFF66; fill-rule: nonzero; opacity: 1;" transform=" matrix(1 0 0 1 0 0) " stroke-linecap="round" />
  <path d="M 70.954 172.112 l -34.277 -1.087 c 1.888 10.746 5.132 21.828 9.388 32.59 l 51.321 1.533 L 70.954 172.112 z" style="stroke: none; stroke-width: 1; stroke-dasharray: none; stroke-linecap: butt; stroke-linejoin: miter; stroke-miterlimit: 10; fill: #CCFF66; fill-rule: nonzero; opacity: 1;" transform=" matrix(1 0 0 1 0 0) " stroke-linecap="round" />
  <path d="M 237.361 187.575 l -15.263 -81.795 c -20.196 32.175 -20.581 73.063 -0.509 99.591 C 226.952 198.716 232.278 192.795 237.361 187.575 z" style="stroke: none; stroke-width: 1; stroke-dasharray: none; stroke-linecap: butt; stroke-linejoin: miter; stroke-miterlimit: 10; fill: #CCFF66; fill-rule: nonzero; opacity: 1;" transform=" matrix(1 0 0 1 0 0) " stroke-linecap="round" />
  <path d="M 271.989 158.42 l 18.012 -22.51 L 274.132 53.15 c -16.716 12.501 -31.892 26.771 -43.942 41.481 l 15.773 84.526 C 258.967 167.042 269.146 160.236 271.989 158.42 z" style="stroke: none; stroke-width: 1; stroke-dasharray: none; stroke-linecap: butt; stroke-linejoin: miter; stroke-miterlimit: 10; fill: #CCFF66; fill-rule: nonzero; opacity: 1;" transform=" matrix(1 0 0 1 0 0) " stroke-linecap="round" />
  <path d="M 123.893 154.945 l -10.498 54.205 l 11.541 14.424 c 2.117 1.369 8.422 5.55 16.614 11.899 l 10.149 -53.998 C 143.958 172.117 134.408 163.03 123.893 154.945 z" style="stroke: none; stroke-width: 1; stroke-dasharray: none; stroke-linecap: butt; stroke-linejoin: miter; stroke-miterlimit: 10; fill: #669933; fill-rule: nonzero; opacity: 1;" transform=" matrix(1 0 0 1 0 0) " stroke-linecap="round" />
  <path d="M 118.113 230.974 c -0.007 -0.007 -0.012 -0.015 -0.019 -0.021 c -0.159 -0.151 -12.508 -15.556 -12.508 -15.556 l -55.183 -1.647 c 5.577 12.026 12.345 23.332 19.772 32.936 l 60.874 1.872 C 127.048 241.359 122.743 235.347 118.113 230.974 z" style="stroke: none; stroke-width: 1; stroke-dasharray: none; stroke-linecap: butt; stroke-linejoin: miter; stroke-miterlimit: 10; fill: #CCFF66; fill-rule: nonzero; opacity: 1;" transform=" matrix(1 0 0 1 0 0) " stroke-linecap="round" />
  <path d="M 241.805 222.442 c 34.537 15.845 72.578 7.847 100.479 -20.723 l -91.813 2.815 C 247.289 210.382 244.404 216.366 241.805 222.442 z" style="stroke: none; stroke-width: 1; stroke-dasharray: none; stroke-linecap: butt; stroke-linejoin: miter; stroke-miterlimit: 10; fill: #669933; fill-rule: nonzero; opacity: 1;" transform=" matrix(1 0 0 1 0 0) " stroke-linecap="round" />
  <path d="M 278.926 165.713 c -8.661 8.785 -16.097 18.435 -22.496 28.634 l 94.782 -2.907 c 11.705 -14.98 22.294 -32.91 30.82 -51.953 l -84.221 2.667 C 297.812 142.154 278.942 165.698 278.926 165.713 z" style="stroke: none; stroke-width: 1; stroke-dasharray: none; stroke-linecap: butt; stroke-linejoin: miter; stroke-miterlimit: 10; fill: #669933; fill-rule: nonzero; opacity: 1;" transform=" matrix(1 0 0 1 0 0) " stroke-linecap="round" />
  <path d="M 356.094 69.316 l 46.234 -1.467 c 2.003 -18.688 0.887 -36.268 -4.266 -50.984 L 356.094 69.316 z" style="stroke: none; stroke-width: 1; stroke-dasharray: none; stroke-linecap: butt; stroke-linejoin: miter; stroke-miterlimit: 10; fill: #669933; fill-rule: nonzero; opacity: 1;" transform=" matrix(1 0 0 1 0 0) " stroke-linecap="round" />
  <path d="M 306.026 131.889 l 80.313 -2.544 c 6.801 -16.959 11.89 -34.52 14.634 -51.449 L 347.88 79.58 L 306.026 131.889 z" style="stroke: none; stroke-width: 1; stroke-dasharray: none; stroke-linecap: butt; stroke-linejoin: miter; stroke-miterlimit: 10; fill: #669933; fill-rule: nonzero; opacity: 1;" transform=" matrix(1 0 0 1 0 0) " stroke-linecap="round" />
  <path d="M 222.807 220.163 c -24.123 32.808 -51.302 88.045 -44.152 165.085 c 3 19.681 4.805 35.4 5.6 42.878 h 30.255 c -2.354 -14.355 -7.611 -52.839 -5.338 -98.978 c 1.61 -32.667 6.723 -62.572 15.195 -88.886 c 4.993 -15.506 19.713 -44.934 20.134 -45.653 C 237.531 201.752 230.085 210.266 222.807 220.163 z" style="stroke: none; stroke-width: 1; stroke-dasharray: none; stroke-linecap: butt; stroke-linejoin: miter; stroke-miterlimit: 10; fill: #669933; fill-rule: nonzero; opacity: 1;" transform=" matrix(1 0 0 1 0 0) " stroke-linecap="round" />
  <path d="M 142.56 249.153 c 11.275 22.563 19.943 53.219 26.407 83.021 c 1.684 -15.686 4.793 -30.958 9.333 -45.724 C 167.903 271.786 154.195 258.802 142.56 249.153 z" style="stroke: none; stroke-width: 1; stroke-dasharray: none; stroke-linecap: butt; stroke-linejoin: miter; stroke-miterlimit: 10; fill: #669933; fill-rule: nonzero; opacity: 1;" transform=" matrix(1 0 0 1 0 0) " stroke-linecap="round" />
  <path d="M 79.549 256.98 c 17.72 16.119 41.264 21.293 61.347 13.023 c -1.521 -3.934 -3.103 -7.701 -4.738 -11.283 L 79.549 256.98 z" style="stroke: none; stroke-width: 1; stroke-dasharray: none; stroke-linecap: butt; stroke-linejoin: miter; stroke-miterlimit: 10; fill: #CCFF66; fill-rule: nonzero; opacity: 1;" transform=" matrix(1 0 0 1 0 0) " stroke-linecap="round" />
  <path d="M 400.582 2.284 l 0.005 -0.022 c -34.099 -7.979 -71.627 6.657 -97.108 20.342 c -31.273 16.795 -62.124 42.043 -82.526 67.539 c -15.211 19.011 -23.85 42.443 -24.328 65.979 c -0.444 21.898 6.15 42.117 18.634 57.436 c -0.082 0.11 -0.163 0.216 -0.245 0.326 c -13.938 18.886 -24.954 39.373 -32.844 61.026 c -4.325 -5.533 -8.996 -10.761 -13.74 -15.621 c 15.229 -23.632 12.374 -57.502 -7.482 -82.317 c -14.273 -17.838 -35.849 -35.499 -57.715 -47.241 c -17.908 -9.617 -44.316 -19.896 -68.432 -14.254 l 0.005 0.021 c -1.417 0.332 -2.684 1.256 -3.366 2.668 c -10.796 22.292 -6.56 50.312 -1.104 69.893 c 6.66 23.909 19.158 48.834 33.433 66.674 c 15.127 18.907 36.336 29.189 57.27 29.188 c 7.918 0 15.789 -1.503 23.284 -4.537 c 21.381 61.971 30.325 152.994 30.441 154.218 c 0.245 2.565 2.4 4.524 4.977 4.524 h 40.713 c 0.004 0 0.008 0.001 0.012 0.001 c 1.061 0 2.902 -0.808 3.584 -1.509 c 1.109 -1.138 1.658 -2.785 1.327 -4.462 c -0.09 -0.456 -8.986 -46.287 -6.215 -102.516 c 1.425 -28.924 6.234 -64.337 18.898 -97.884 c 12.676 5.743 25.935 8.653 39.279 8.653 c 7.686 0 15.401 -0.963 23.046 -2.9 c 21.989 -5.573 41.775 -18.721 57.22 -38.021 c 20.401 -25.499 38.27 -61.138 47.796 -95.333 c 7.763 -27.86 13.812 -67.688 -1.451 -99.204 C 403.264 3.54 401.999 2.617 400.582 2.284 z M 390.254 10.616 L 348.284 63.07 l -8.712 -45.432 C 357.367 11.584 374.765 8.817 390.254 10.616 z M 330.067 21.163 l 10.004 52.171 l -41.857 52.312 l -15.132 -78.921 C 298.135 36.37 314.152 27.554 330.067 21.163 z M 274.132 53.15 l 15.868 82.761 l -18.012 22.51 c -2.843 1.815 -13.021 8.622 -26.026 20.737 L 230.19 94.631 C 242.241 79.92 257.417 65.651 274.132 53.15 z M 222.098 105.781 l 15.263 81.795 c -5.083 5.22 -10.409 11.141 -15.771 17.796 C 201.517 178.844 201.902 137.955 222.098 105.781 z M 161.106 252.117 c -3.65 -3.425 -7.264 -6.606 -10.721 -9.513 l 9.318 -49.578 C 170.395 212.308 171.064 235.121 161.106 252.117 z M 85.221 132.173 c 10.07 4.201 20.17 9.799 29.736 16.313 l -9.764 50.413 L 78.76 165.863 L 85.221 132.173 z M 75.718 128.631 l -5.171 26.966 l -25.261 -31.57 C 54.723 123.417 65.099 125.156 75.718 128.631 z M 37.495 130.294 l 25.246 31.553 l -27.433 -0.87 C 34.25 149.861 34.831 139.363 37.495 130.294 z M 36.676 171.025 l 34.277 1.087 l 26.432 33.036 l -51.321 -1.533 C 41.808 192.853 38.564 181.771 36.676 171.025 z M 50.404 213.749 l 55.183 1.647 c 0 0 12.349 15.404 12.508 15.556 c 0.007 0.007 0.012 0.015 0.019 0.021 c 4.63 4.373 8.935 10.385 12.937 17.584 l -60.874 -1.872 C 62.749 237.081 55.981 225.776 50.404 213.749 z M 79.549 256.98 l 56.608 1.74 c 1.636 3.582 3.217 7.35 4.738 11.283 C 120.813 278.273 97.269 273.099 79.549 256.98 z M 124.936 223.574 l -11.541 -14.424 l 10.498 -54.205 c 10.515 8.085 20.065 17.173 27.807 26.53 l -10.149 53.998 C 133.358 229.123 127.053 224.943 124.936 223.574 z M 168.967 332.174 c -6.464 -29.803 -15.133 -60.458 -26.407 -83.021 c 11.635 9.649 25.343 22.634 35.74 37.298 C 173.76 301.216 170.651 316.489 168.967 332.174 z M 224.367 240.263 c -8.473 26.314 -13.585 56.219 -15.195 88.886 c -2.273 46.139 2.984 84.622 5.338 98.978 h -30.255 c -0.795 -7.478 -2.6 -23.197 -5.6 -42.878 c -7.15 -77.04 20.029 -132.277 44.152 -165.085 c 7.278 -9.897 14.724 -18.411 21.693 -25.554 C 244.08 195.329 229.36 224.757 224.367 240.263 z M 241.805 222.442 c 2.599 -6.076 5.483 -12.06 8.666 -17.907 l 91.813 -2.815 C 314.383 230.288 276.342 238.286 241.805 222.442 z M 351.212 191.44 l -94.782 2.907 c 6.399 -10.199 13.835 -19.849 22.496 -28.634 c 0.016 -0.016 18.886 -23.559 18.886 -23.559 l 84.221 -2.667 C 373.506 158.53 362.918 176.46 351.212 191.44 z M 386.339 129.345 l -80.313 2.544 L 347.88 79.58 l 53.093 -1.685 C 398.229 94.825 393.14 112.386 386.339 129.345 z M 402.329 67.849 l -46.234 1.467 l 41.969 -52.451 C 403.215 31.581 404.332 49.161 402.329 67.849 z" style="stroke: none; stroke-width: 1; stroke-dasharray: none; stroke-linecap: butt; stroke-linejoin: miter; stroke-miterlimit: 10; fill: #000000; fill-rule: nonzero; opacity: 1;" transform=" matrix(1 0 0 1 0 0) " stroke-linecap="round" />
</g>
</svg>